<svg width="119" height="119" viewBox="0 0 119 119" fill="none" xmlns="http://www.w3.org/2000/svg">
<g filter="url(#filter0_d_3_6812)">
<rect x="13.9141" y="40.5884" width="66.9638" height="66.9638" rx="6.27117" transform="rotate(-30 13.9141 40.5884)" fill="#0072F9"/>
</g>
<g clip-path="url(#clip0_3_6812)">
<path d="M55.4707 68.4494L79.4709 54.5929L81.4504 58.0215L54.0216 73.8575L38.1855 46.4287L41.6141 44.4492L55.4707 68.4494ZM58.7667 64.2607C58.4195 64.4621 58.0351 64.591 57.6367 64.6396C57.2383 64.6883 56.8342 64.6556 56.4487 64.5437C56.0633 64.4317 55.7046 64.2428 55.3942 63.9883C55.0839 63.7339 54.8283 63.4191 54.643 63.0631C54.4577 62.707 54.3465 62.3171 54.3162 61.9169C54.2858 61.5167 54.3369 61.1145 54.4663 60.7346C54.5958 60.3547 54.8009 60.005 55.0693 59.7066C55.3377 59.4082 55.6638 59.1673 56.0279 58.9985L56.1319 52.7967C55.6552 52.5545 55.2527 52.1881 54.967 51.7361C54.6812 51.2842 54.5228 50.7634 54.5085 50.2289C54.4942 49.6944 54.6244 49.1659 54.8856 48.6993C55.1467 48.2327 55.529 47.8453 55.9921 47.5779C56.4551 47.3106 56.9818 47.1732 57.5165 47.1804C58.0511 47.1875 58.5739 47.339 59.0297 47.6186C59.4854 47.8983 59.8572 48.2958 60.1057 48.7693C60.3542 49.2427 60.4703 49.7745 60.4417 50.3084L65.8646 53.3193C65.9889 53.2318 66.1201 53.1545 66.2569 53.0882L66.2101 42.4683C65.6048 42.1772 65.1161 41.6896 64.8237 41.085C64.5313 40.4803 64.4525 39.7945 64.6002 39.1393C64.7479 38.4841 65.1134 37.8984 65.6369 37.4777C66.1604 37.057 66.8111 36.8262 67.4827 36.823C68.1543 36.8199 68.8072 37.0445 69.3347 37.4602C69.8622 37.8759 70.2331 38.4581 70.387 39.1119C70.5409 39.7656 70.4686 40.4522 70.182 41.0596C69.8953 41.667 69.4112 42.1592 68.8087 42.456L68.8555 53.0759C69.3398 53.3091 69.7516 53.6693 70.0472 54.1181C70.3428 54.567 70.511 55.0877 70.5339 55.6246C70.5568 56.1616 70.4335 56.6947 70.1772 57.1671C69.9209 57.6394 69.5412 58.0334 69.0786 58.307C68.616 58.5805 68.0878 58.7234 67.5504 58.7203C67.013 58.7173 66.4865 58.5684 66.027 58.2896C65.5675 58.0108 65.1923 57.6126 64.9415 57.1373C64.6906 56.662 64.5734 56.1275 64.6024 55.5909L59.1795 52.58C59.0381 52.6801 58.8877 52.7669 58.7303 52.8393L58.6263 59.0412C59.1033 59.2832 59.506 59.6496 59.7919 60.1016C60.0779 60.5536 60.2364 61.0745 60.2508 61.6092C60.2652 62.1438 60.1349 62.6724 59.8736 63.1392C59.6124 63.6059 59.2299 63.9934 58.7667 64.2607Z" fill="white"/>
</g>
<defs>
<filter id="filter0_d_3_6812" x="0.531064" y="-0.00587273" width="118.241" height="118.241" filterUnits="userSpaceOnUse" color-interpolation-filters="sRGB">
<feFlood flood-opacity="0" result="BackgroundImageFix"/>
<feColorMatrix in="SourceAlpha" type="matrix" values="0 0 0 0 0 0 0 0 0 0 0 0 0 0 0 0 0 0 127 0" result="hardAlpha"/>
<feOffset dy="6.27117"/>
<feGaussianBlur stdDeviation="7.83896"/>
<feColorMatrix type="matrix" values="0 0 0 0 0 0 0 0 0 0 0 0 0 0 0 0 0 0 0.1 0"/>
<feBlend mode="normal" in2="BackgroundImageFix" result="effect1_dropShadow_3_6812"/>
<feBlend mode="normal" in="SourceGraphic" in2="effect1_dropShadow_3_6812" result="shape"/>
</filter>
<clipPath id="clip0_3_6812">
<rect width="31.6721" height="31.6721" fill="white" transform="translate(38.1855 46.4287) rotate(-30)"/>
</clipPath>
</defs>
</svg>
