<svg width="106" height="89" viewBox="0 0 106 89" fill="none" xmlns="http://www.w3.org/2000/svg">
<path d="M0.865234 75.3071C1.55924 57.9569 5.02929 57.9569 11.2754 75.3071C17.5215 92.6573 20.9915 92.6573 21.6855 75.3071C22.3795 57.9569 25.8496 57.9569 32.0957 75.3071C38.3417 92.6573 41.8118 92.6573 42.5058 75.3071C43.1998 57.9569 46.6698 57.9569 52.9159 75.3071C59.162 92.6573 62.6321 92.6573 63.3261 75.3071C64.0201 57.9569 67.4901 57.9569 73.7362 75.3071C79.9823 92.6573 83.4523 92.6573 84.1464 75.3071C84.8404 57.9569 88.3104 57.9569 94.5565 75.3071C100.803 92.6573 104.273 92.6573 104.967 75.3071" stroke="#5A189A" stroke-width="1.25423"/>
<path d="M0.865234 55.2676C1.55924 37.9173 5.02929 37.9173 11.2754 55.2676C17.5215 72.6178 20.9915 72.6178 21.6855 55.2676C22.3795 37.9173 25.8496 37.9173 32.0957 55.2676C38.3417 72.6178 41.8118 72.6178 42.5058 55.2676C43.1998 37.9173 46.6698 37.9173 52.9159 55.2676C59.162 72.6178 62.6321 72.6178 63.3261 55.2676C64.0201 37.9173 67.4901 37.9173 73.7362 55.2676C79.9823 72.6178 83.4523 72.6178 84.1464 55.2676C84.8404 37.9173 88.3104 37.9173 94.5565 55.2676C100.803 72.6178 104.273 72.6178 104.967 55.2676" stroke="#5A189A" stroke-width="1.25423"/>
<path d="M0.865234 33.6665C1.55924 16.3163 5.02929 16.3163 11.2754 33.6665C17.5215 51.0167 20.9915 51.0167 21.6855 33.6665C22.3795 16.3163 25.8496 16.3163 32.0957 33.6665C38.3417 51.0167 41.8118 51.0167 42.5058 33.6665C43.1998 16.3163 46.6698 16.3163 52.9159 33.6665C59.162 51.0167 62.6321 51.0167 63.3261 33.6665C64.0201 16.3163 67.4901 16.3163 73.7362 33.6665C79.9823 51.0167 83.4523 51.0167 84.1464 33.6665C84.8404 16.3163 88.3104 16.3163 94.5565 33.6665C100.803 51.0167 104.273 51.0167 104.967 33.6665" stroke="#5A189A" stroke-width="1.25423"/>
<path d="M0.865234 14.1474C1.55924 -3.20279 5.02929 -3.20279 11.2754 14.1474C17.5215 31.4977 20.9915 31.4977 21.6855 14.1474C22.3795 -3.20279 25.8496 -3.20279 32.0957 14.1474C38.3417 31.4977 41.8118 31.4977 42.5058 14.1474C43.1998 -3.20279 46.6698 -3.20279 52.9159 14.1474C59.162 31.4977 62.6321 31.4977 63.3261 14.1474C64.0201 -3.20279 67.4901 -3.20279 73.7362 14.1474C79.9823 31.4977 83.4523 31.4977 84.1464 14.1474C84.8404 -3.20279 88.3104 -3.20279 94.5565 14.1474C100.803 31.4977 104.273 31.4977 104.967 14.1474" stroke="#5A189A" stroke-width="1.25423"/>
</svg>
